<?xml version="1.0" encoding="UTF-8"?>
<!DOCTYPE svg PUBLIC "-//W3C//DTD SVG 1.1//EN" "http://www.w3.org/Graphics/SVG/1.1/DTD/svg11.dtd">
<!-- Creator: SignCut DRAW -->
<svg xmlns="http://www.w3.org/2000/svg" xml:space="preserve" width="320mm" height="113mm" version="1.1" style="shape-rendering:geometricPrecision; fill-rule:evenodd; clip-rule:evenodd"
viewBox="0 0 32022 11391"
xmlns:xlink="http://www.w3.org/1999/xlink">
<g>
  <path fill="#e63947" stroke="none" d="M 2844.90,8594.20 C 2791.20,8572.70 2733.30,8531.10 2730.20,8475.30 C 2709.00,8095.20 2730.20,7673.90 2730.20,7289.40 C 2486.10,7534.00 2261.70,7803.70 1994.80,8024.40 C 1853.50,8006.50 1753.00,7948.00 1705.10,7806.50 C 1690.30,7762.80 1759.70,7689.50 1786.50,7663.40 C 2102.70,7355.40 2405.80,7033.80 2727.80,6732.00 L 2730.20,5571.50 L 1727.30,6159.40 C 1623.80,6603.50 1517.90,7047.40 1406.30,7489.70 C 1394.60,7535.80 1371.30,7566.40 1331.30,7577.70 C 1284.40,7590.90 1167.80,7569.10 1120.10,7557.90 C 1071.10,7546.40 1031.10,7502.90 1005.80,7461.80 L 1260.70,6422.50 C 921.10,6620.00 590.40,6832.60 240.10,7010.20 C 183.90,7038.60 106.50,6994.50 66.20,6959.60 C 27.80,6926.30 11.20,6868.00 2.30,6820.90 C -8.80,6762.20 20.00,6700.20 64.10,6668.80 C 367.40,6452.70 706.00,6275.40 1033.10,6098.10 L 28.50,5793.60 C -1.30,5679.70 44.50,5577.10 96.90,5479.80 C 105.30,5465.10 121.90,5457.00 134.50,5445.70 C 153.10,5440.20 185.80,5433.30 204.90,5439.00 C 644.80,5570.30 1088.20,5688.50 1534.40,5797.60 L 2511.60,5239.40 L 1547.60,4687.90 C 1098.90,4803.90 653.10,4930.60 204.90,5047.80 C 147.30,5062.80 110.30,5026.30 85.90,4990.50 C 27.80,4905.20 9.80,4790.00 11.40,4689.40 L 1050.40,4401.20 C 718.20,4216.00 386.20,4031.00 64.10,3829.10 C -20.90,3775.80 -5.30,3662.70 15.50,3582.50 C 26.20,3540.90 94.30,3491.40 134.50,3479.00 C 180.50,3464.70 196.20,3465.00 240.10,3485.50 C 594.60,3651.00 925.40,3869.90 1261.00,4069.80 C 1179.50,3729.80 1085.10,3393.10 998.80,3054.50 C 994.70,3038.60 998.70,3021.40 1002.00,3005.40 C 1098.90,2903.10 1242.20,2898.00 1374.70,2923.60 C 1506.20,3373.40 1614.90,3831.10 1727.50,4286.50 C 1731.20,4301.40 1737.20,4315.80 1743.60,4329.90 C 2056.20,4537.30 2388.20,4710.10 2712.40,4898.30 C 2716.10,4882.30 2729.90,4809.40 2730.20,4779.30 C 2733.50,4440.60 2730.20,4101.70 2730.20,3763.00 C 2420.40,3453.20 2116.90,3134.50 1793.10,2840.10 C 1739.60,2791.50 1722.90,2767.50 1705.10,2702.50 C 1689.30,2645.10 1784.00,2537.40 1824.10,2504.00 C 1871.30,2465.40 1905.40,2461.90 1964.90,2466.90 C 2216.30,2711.30 2477.40,2947.60 2721.70,3199.70 C 2721.70,2800.10 2680.10,2393.80 2734.60,1998.50 C 2742.00,1944.40 2869.80,1889.80 2915.30,1883.80 C 2998.90,1872.70 3089.80,1947.00 3126.70,2015.90 L 3126.70,3114.30 C 3126.70,3136.40 3150.00,3152.00 3161.70,3170.90 C 3396.90,2962.20 3608.70,2727.30 3830.50,2504.00 C 3851.30,2482.80 3874.90,2471.10 3900.90,2458.20 C 4030.60,2442.00 4121.50,2597.20 4171.90,2692.10 C 4150.40,2752.00 4159.60,2756.20 4110.00,2806.00 C 3786.30,3130.90 3465.00,3459.90 3126.70,3768.80 L 3126.70,4913.30 C 3442.50,4724.60 3768.30,4553.40 4082.10,4361.20 C 4098.70,4350.90 4130.30,4307.00 4136.00,4286.50 C 4252.70,3866.70 4351.90,3441.60 4459.40,3019.30 C 4471.30,2972.40 4506.50,2944.20 4541.90,2916.20 C 4638.80,2903.40 4789.30,2911.20 4853.70,2998.60 C 4851.60,3244.20 4696.80,3710.10 4631.40,3969.70 C 4623.10,4002.40 4618.50,4035.90 4612.90,4069.20 C 4946.10,3871.20 5279.10,3670.30 5625.70,3496.40 C 5638.90,3489.70 5653.80,3486.80 5668.20,3483.20 C 5782.30,3528.80 5872.60,3591.40 5872.30,3723.30 C 5872.10,3768.80 5858.40,3805.60 5821.80,3828.90 C 5498.20,4034.80 5156.80,4215.80 4822.60,4404.00 C 5137.30,4493.40 5453.80,4576.80 5766.50,4673.40 C 5800.20,4683.80 5830.10,4723.20 5848.00,4750.60 C 5838.20,4852.80 5817.30,4951.90 5747.00,5025.70 C 5737.90,5035.10 5671.80,5059.10 5660.90,5056.70 C 5220.80,4959.70 4790.40,4822.40 4358.50,4700.20 C 4341.40,4695.30 4323.70,4693.20 4306.20,4690.40 L 3338.30,5243.20 C 3361.50,5257.10 3384.40,5271.80 3408.10,5285.10 C 3701.90,5450.00 3990.70,5623.60 4288.10,5782.00 C 4307.30,5792.20 4338.10,5795.50 4358.50,5791.00 C 4784.00,5697.10 5204.50,5572.80 5625.70,5461.10 C 5658.80,5452.30 5698.60,5455.20 5732.50,5458.60 C 5804.00,5529.60 5859.10,5664.40 5843.60,5764.90 C 5839.60,5790.40 5825.60,5815.00 5801.70,5822.20 C 5472.20,5921.40 5137.80,6003.80 4808.20,6102.60 C 5140.80,6293.20 5478.50,6475.20 5804.00,6677.70 C 5872.60,6720.30 5864.20,6867.20 5823.80,6926.50 C 5780.90,6989.30 5721.10,7014.00 5650.10,7032.80 C 5300.30,6868.60 4972.50,6656.30 4640.10,6460.20 C 4607.10,6440.70 4604.20,6466.80 4613.90,6504.10 C 4693.10,6808.90 4773.30,7113.30 4849.10,7419.30 C 4861.00,7467.60 4847.30,7483.10 4829.00,7526.40 C 4754.00,7602.00 4633.80,7606.60 4534.50,7586.60 C 4488.30,7547.70 4474.80,7546.60 4459.40,7489.70 C 4339.60,7047.00 4229.40,6600.30 4123.80,6154.20 L 3126.70,5577.90 L 3126.70,6728.30 C 3452.30,7053.90 3777.10,7380.40 4107.90,7700.90 C 4143.90,7735.80 4161.10,7760.80 4164.90,7806.50 C 4170.60,7876.20 4091.00,7954.80 4041.70,7996.10 C 3989.60,8039.60 3927.30,8083.30 3865.70,8028.90 C 3606.90,7800.30 3383.40,7534.50 3126.70,7304.30 C 3126.70,7694.60 3140.60,8085.00 3126.70,8475.30 C 3124.90,8524.80 3058.60,8573.10 3020.90,8589.90 C 2950.60,8620.60 2915.30,8620.80 2844.90,8594.20 Z "/>
  <path fill="#afbfc6" stroke="none" d="M 17100.90,11388.50 C 16730.10,11393.40 16413.50,11095.80 16405.20,10728.10 C 16396.40,10341.40 16405.20,9953.40 16405.20,9566.70 L 16732.30,9555.40 C 16723.00,9981.20 16673.90,10415.50 16764.70,10833.70 C 16802.40,11007.30 17016.60,11082.00 17171.30,11079.60 C 17318.80,11077.30 17481.10,10978.10 17505.70,10833.70 C 17570.60,10452.50 17543.70,9960.40 17530.60,9569.60 C 17638.10,9557.10 17746.10,9553.00 17855.00,9559.70 C 17874.10,9839.30 17881.30,10165.40 17875.70,10446.50 C 17867.30,10867.90 17802.70,11269.00 17312.10,11368.70 C 17251.50,11381.10 17162.50,11388.00 17100.90,11388.50 Z "/>
  <path fill="#193557" stroke="none" d="M 16841.30,1276.90 C 17040.70,868.40 17255.70,467.70 17461.50,62.50 C 17471.10,43.20 17484.70,26.10 17498.40,9.60 C 17846.80,9.70 18196.60,18.40 18544.10,0.70 C 18576.80,-1.00 18609.70,0.70 18642.60,0.70 L 17741.60,1274.80 L 16841.30,1276.90 Z "/>
  <path fill="#afbfc6" stroke="none" d="M 21315.70,11351.40 L 21315.70,9557.30 L 22601.20,9557.30 L 22601.20,9857.20 L 21642.10,9857.20 L 21642.10,10296.50 L 22433.70,10296.50 L 22433.70,10579.20 L 21652.90,10588.60 C 21642.50,10745.20 21638.40,10902.60 21642.50,11060.50 C 21963.30,11080.90 22287.60,11070.90 22609.70,11070.90 L 22609.70,11362.10 L 21315.70,11351.40 Z "/>
  <g>
    <path fill="#afbfc6" stroke="none" d="M 19044.50,11353.30 C 19059.50,10754.80 19055.80,10155.90 19054.50,9557.30 C 19318.50,9557.30 19582.50,9554.40 19846.50,9557.30 C 20071.30,9559.70 20280.60,9713.50 20353.00,9918.50 C 20430.30,10137.60 20383.00,10423.60 20198.50,10574.90 C 19985.60,10749.30 19681.60,10727.40 19424.10,10713.10 C 19379.30,10753.30 19372.50,10744.00 19371.30,10798.50 C 19367.20,10984.70 19383.90,11167.00 19369.60,11353.30 L 19044.50,11353.30 Z M 19380.50,10421.30 C 19568.30,10445.90 19930.50,10490.50 20022.00,10270.50 C 20059.70,10179.80 20071.70,10025.10 19990.40,9950.50 C 19834.40,9807.30 19627.70,9827.90 19424.10,9839.70 C 19408.50,9840.60 19395.00,9851.20 19380.50,9857.00 L 19380.50,10421.30 Z "/>
  </g>
  <g>
    <path fill="#afbfc6" stroke="none" d="M 12257.50,11353.30 C 12126.60,11122.30 11996.00,10891.30 11865.50,10660.20 L 11585.90,10647.50 L 11573.80,11353.30 L 11248.50,11353.30 L 11248.50,9548.90 C 11555.90,9548.90 11868.90,9532.30 12172.90,9566.00 C 12377.20,9588.60 12556.80,9790.90 12586.90,9988.90 C 12627.60,10257.00 12519.30,10570.00 12215.20,10616.10 L 12641.90,11353.20 L 12257.50,11353.30 Z M 11574.90,10375.60 C 11726.50,10379.00 11960.80,10394.50 12102.50,10347.10 C 12169.10,10324.80 12252.70,10243.30 12251.60,10164.90 C 12251.50,10158.20 12235.90,10001.90 12229.50,9988.90 C 12180.90,9891.30 12067.40,9839.80 11961.70,9839.70 C 11836.00,9839.50 11699.30,9826.40 11574.90,9844.50 L 11574.90,10375.60 Z "/>
  </g>
  <path fill="#afbfc6" stroke="none" d="M 9180.90,11362.10 C 8870.00,11316.80 8598.90,11063.50 8516.00,10763.30 C 8365.70,10219.00 8586.70,9714.80 9145.70,9559.40 C 9323.20,9510.00 9532.10,9516.90 9708.90,9561.60 C 9866.60,9601.40 9989.90,9686.20 10110.00,9793.60 L 9915.00,10038.90 C 9719.00,9858.80 9473.20,9786.50 9216.10,9863.90 C 8918.10,9953.50 8782.30,10262.70 8805.10,10552.10 C 8827.10,10832.40 9089.60,11060.50 9356.90,11079.60 C 9479.40,11086.20 9592.80,11066.90 9708.90,11026.40 C 9742.40,10967.40 9759.50,10945.20 9761.70,10868.90 C 9763.50,10816.50 9762.60,10706.90 9752.40,10657.70 L 9743.10,10613.10 L 9367.10,10602.90 L 9358.70,10331.30 L 10078.70,10322.60 L 10088.30,11168.40 C 9815.60,11340.40 9500.80,11410.60 9180.90,11362.10 Z "/>
  <g>
    <path fill="#afbfc6" stroke="none" d="M 14425.70,11388.50 C 14163.00,11370.00 13910.30,11260.80 13754.10,11044.90 C 13610.40,10846.30 13545.20,10582.80 13576.00,10340.90 C 13635.60,9872.00 14058.50,9503.20 14531.30,9530.80 C 14803.60,9546.60 15065.00,9662.40 15231.30,9883.30 C 15451.10,10175.20 15478.00,10579.20 15319.40,10904.10 C 15160.10,11229.90 14784.00,11417.30 14425.70,11388.50 Z M 14425.70,11079.60 C 14677.10,11104.80 14941.90,10966.10 15028.00,10728.10 C 15131.10,10442.20 15078.10,10056.00 14777.70,9905.80 C 14572.30,9803.10 14327.70,9814.80 14144.10,9962.80 C 13930.70,10134.70 13875.10,10399.90 13942.00,10657.70 C 13998.10,10874.00 14195.40,11062.20 14425.70,11079.60 Z "/>
  </g>
  <path fill="#193557" stroke="none" d="M 15437.40,7868.20 L 15428.90,1813.40 C 16708.10,1818.90 17986.80,1795.00 19265.70,1814.20 L 19265.70,2583.60 C 19190.10,2660.00 19116.40,2738.20 19036.90,2810.40 C 19027.60,2818.80 18979.00,2834.50 18966.50,2834.60 C 18145.30,2841.10 17323.80,2834.60 16502.60,2834.60 L 16502.60,4321.70 L 18528.80,4321.50 C 18534.60,4347.50 18542.50,4400.60 18542.00,4427.30 C 18536.60,4713.40 18543.80,5005.20 18525.40,5289.70 L 16511.50,5289.70 C 16511.50,5823.00 16522.20,6359.60 16501.40,6891.10 C 17422.50,6891.10 18345.40,6902.40 19265.70,6881.20 C 19265.70,7189.60 19265.70,7498.00 19265.70,7806.50 L 19265.70,7868.20 L 15437.40,7868.20 Z "/>
  <path fill="#193557" stroke="none" d="M 23084.90,7903.40 C 22641.90,7895.10 22073.80,7897.50 21745.00,7562.40 C 21356.00,7165.90 21393.40,6702.10 21395.10,6187.30 C 21398.80,5057.00 21353.50,3897.70 21421.40,2772.90 C 21438.40,2490.10 21639.90,2214.60 21852.90,2046.40 C 22041.80,1897.10 22284.10,1816.10 22521.70,1813.40 C 23424.90,1803.10 24328.80,1812.00 25232.10,1813.40 C 25255.50,1813.40 25296.50,1824.20 25320.10,1832.10 L 25318.00,2569.70 C 25235.50,2664.60 25147.90,2757.00 25044.90,2829.50 C 24578.90,2844.50 24079.70,2822.90 23612.90,2817.10 C 23355.20,2813.80 23093.50,2832.60 22838.50,2863.10 C 22639.40,2886.90 22489.60,3129.80 22480.00,3300.90 C 22425.40,4273.90 22457.60,5310.60 22468.90,6292.90 C 22472.50,6613.10 22671.50,6860.30 22979.30,6882.20 C 23715.50,6934.50 24583.50,6899.40 25327.40,6881.60 C 25342.60,7188.90 25343.40,7465.10 25329.00,7771.30 C 25325.50,7844.40 25181.20,7867.70 25126.50,7868.20 C 24832.60,7870.80 24538.50,7876.30 24246.50,7883.60 C 23858.90,7893.90 23472.70,7910.10 23084.90,7903.40 Z "/>
  <g>
    <path fill="#193557" stroke="none" d="M 30941.80,7868.20 C 30815.10,7449.80 30696.70,7029.00 30573.40,6609.70 C 30567.70,6591.00 30558.40,6574.90 30547.30,6559.40 C 30519.80,6546.40 30507.70,6539.30 30476.90,6539.40 C 29816.30,6541.50 29155.60,6539.40 28495.10,6539.40 C 28484.70,6562.80 28471.00,6585.00 28464.00,6609.70 C 28345.30,7028.40 28220.00,7445.50 28088.30,7860.20 L 27022.70,7868.20 C 27008.50,7687.30 26976.50,7487.70 27031.50,7313.70 C 27612.40,5475.80 28245.90,3655.40 28814.10,1813.30 C 29262.70,1813.40 29711.40,1812.30 30160.10,1813.40 C 30179.90,1813.40 30198.90,1822.50 30217.40,1830.10 C 30799.20,3662.10 31452.20,5471.60 32001.70,7313.70 C 32034.50,7423.70 32020.30,7739.80 32016.20,7868.10 L 30941.80,7868.20 Z M 30230.50,5597.50 C 30249.00,5597.40 30267.40,5593.40 30285.90,5591.40 C 30280.70,5566.80 30274.70,5542.50 30267.70,5518.50 C 30011.90,4645.80 29748.50,3775.10 29515.90,2896.00 C 29501.00,2930.50 29479.80,2981.30 29469.50,3019.30 C 29234.60,3879.80 28989.10,4737.50 28751.40,5597.50 C 29244.40,5597.50 29737.30,5597.50 30230.50,5597.50 Z "/>
  </g>
  <g>
    <path fill="#193557" stroke="none" d="M 11961.50,7859.30 C 11593.90,7124.10 11218.60,6392.90 10848.30,5659.30 C 10813.00,5642.60 10779.20,5623.90 10729.70,5624.20 C 10339.60,5626.50 9949.40,5624.20 9559.40,5624.20 L 9559.40,7857.90 L 8476.70,7868.20 L 8476.70,1814.00 C 9613.40,1796.40 10755.80,1777.10 11891.30,1822.30 C 12309.90,1838.90 12697.10,2209.90 12808.80,2596.90 C 12835.30,2688.80 12855.90,2782.90 12859.30,2878.50 C 12873.40,3276.30 12894.90,3676.70 12885.90,4075.30 C 12880.30,4321.90 12871.80,4570.10 12837.40,4814.50 C 12810.60,5004.30 12666.90,5205.80 12524.90,5329.70 C 12376.40,5459.20 12191.20,5529.90 12001.20,5572.10 C 12300.70,6126.40 12683.30,6634.20 12947.40,7208.10 C 13007.10,7337.90 12982.70,7706.30 12972.90,7859.30 L 11961.50,7859.30 Z M 9559.40,4655.20 C 10137.20,4671.20 10716.00,4683.80 11292.90,4638.30 C 11490.30,4622.70 11727.80,4497.60 11770.00,4286.50 C 11827.40,3998.90 11807.40,3698.80 11794.30,3406.50 C 11783.00,3154.50 11610.40,2844.30 11328.10,2834.60 C 10743.50,2814.40 10154.50,2834.30 9569.30,2816.10 C 9564.40,2832.40 9552.50,2899.50 9552.70,2913.70 C 9559.20,3494.10 9559.70,4074.60 9559.40,4655.20 Z "/>
  </g>
</g>
</svg>
